<?xml version="1.0" encoding="UTF-8"?> <!-- Generator: Adobe Illustrator 23.0.1, SVG Export Plug-In . SVG Version: 6.00 Build 0) --> <svg xmlns="http://www.w3.org/2000/svg" xmlns:xlink="http://www.w3.org/1999/xlink" id="Layer_1" x="0px" y="0px" viewBox="0 0 396 107.87" style="enable-background:new 0 0 396 107.87;" xml:space="preserve"> <style type="text/css"> .st0{fill:#8BC5EB;} .st1{fill:#293A44;} </style> <g> <g> <path class="st0" d="M58.59,101.13c-25.04,0-45.42-20.37-45.42-45.42s20.37-45.42,45.42-45.42s45.42,20.37,45.42,45.42 c0,10.2-3.3,19.83-9.54,27.86l-2.98-2.32c5.72-7.36,8.75-16.19,8.75-25.54c0-22.96-18.68-41.64-41.64-41.64 S16.95,32.75,16.95,55.71s18.68,41.64,41.64,41.64c7.28,0,14.45-1.91,20.73-5.52l1.88,3.28C74.36,99.04,66.54,101.13,58.59,101.13 z"></path> </g> <g> <g> <path class="st1" d="M76.8,66.31c8.43-3.89,14.94-12.85,13.82-22.36c-0.7-5.88-4.09-11.28-9.04-14.52 c-5.73-3.74-13.05-4.54-19.72-4.54c-0.03,0-27.02,0-27.02,0v63.25l18.89-24.28V39.83c0-0.05,15.17,0.05,15.23,0.06 c6.15,0.53,10.93,7.65,7.24,13.18c-1.42,2.12-3.52,3.28-5.84,4.05L65,49.51L53.72,63.86l17.33,24.28h21.09L76.8,66.31z M70.86,59.63c-0.47,0.29-1.91,0.57-2.39,0.32c-0.11-0.05-0.2-0.13-0.32-0.17c-0.12-0.05-0.25-0.05-0.38-0.05 c-0.75,0.02-1.57,0.37-2.22,0c-0.17-0.1-0.32-0.24-0.51-0.26c-0.15-0.02-0.29,0.04-0.43,0.09c-0.7,0.25-1.48,0.27-2.19,0.05 c-0.12-0.04-0.25-0.08-0.37-0.09c-0.16-0.01-0.33,0.05-0.47,0.13c-0.37,0.2-0.68,0.53-1.09,0.64c-1.15,0.33-1.97-2.09-1.43-2.79 c0,0,5.91-7.72,5.91-7.72c0.67,0.96,1.34,1.91,2.02,2.87C67.74,53.72,72.16,58.82,70.86,59.63z"></path> <g> <path class="st1" d="M64.94,50.66l1.58,2.25c0.15,0.21,0.41,0.55,0.75,0.97c2.34,2.98,3.5,4.8,3.46,5.43 c-0.28,0.13-0.96,0.3-1.49,0.3c-0.21,0-0.29-0.03-0.29-0.03c0,0,0,0,0,0c-0.03-0.01-0.06-0.03-0.08-0.05 c-0.08-0.05-0.18-0.11-0.31-0.16c-0.17-0.07-0.36-0.1-0.58-0.1l-0.09,0c-0.29,0.01-0.57,0.05-0.83,0.1 c-0.26,0.04-0.5,0.08-0.71,0.08c-0.18,0-0.32-0.03-0.42-0.09c-0.04-0.02-0.07-0.04-0.1-0.07c-0.15-0.1-0.39-0.26-0.7-0.29 c-0.04,0-0.08-0.01-0.12-0.01c-0.24,0-0.44,0.07-0.59,0.13l-0.04,0.01c-0.32,0.11-0.65,0.17-0.99,0.17 c-0.3,0-0.59-0.04-0.87-0.13l-0.05-0.02c-0.14-0.04-0.31-0.1-0.52-0.11l-0.04,0h-0.01c-0.26,0-0.52,0.07-0.79,0.22 c-0.19,0.1-0.35,0.22-0.5,0.32c-0.19,0.14-0.36,0.25-0.51,0.3c-0.01,0-0.03,0.01-0.04,0.01c-0.08,0-0.26-0.12-0.44-0.44 c-0.35-0.6-0.37-1.29-0.29-1.43L64.94,50.66 M64.97,49.51c0,0-6.21,8.11-6.21,8.11c-0.53,0.69,0.19,2.97,1.28,2.97 c0.07,0,0.15-0.01,0.23-0.03c0.43-0.12,0.75-0.47,1.14-0.68c0.14-0.08,0.3-0.14,0.47-0.14c0.01,0,0.02,0,0.03,0 c0.13,0.01,0.26,0.05,0.39,0.09C62.64,59.95,63,60,63.37,60c0.42,0,0.83-0.07,1.22-0.21c0.13-0.05,0.26-0.1,0.4-0.1 c0.02,0,0.03,0,0.05,0c0.2,0.02,0.36,0.17,0.54,0.27c0.24,0.14,0.5,0.18,0.77,0.18c0.51,0,1.05-0.16,1.57-0.18 c0.02,0,0.04,0,0.07,0c0.11,0,0.23,0.01,0.34,0.05c0.12,0.05,0.22,0.12,0.33,0.18c0.14,0.07,0.35,0.1,0.6,0.1 c0.66,0,1.56-0.21,1.92-0.44c1.37-0.85-3.28-6.21-4.07-7.34C66.38,51.52,65.67,50.51,64.97,49.51L64.97,49.51z"></path> </g> </g> </g> <g> <path class="st1" d="M53.77,74.54c0.04-0.01,0.07-0.02,0.11-0.03c0.14-0.05,0.33-0.11,0.56-0.11c0.12,0,0.23,0.02,0.34,0.05 c0.26,0.08,0.44,0.23,0.55,0.33c0.02,0.02,0.04,0.04,0.06,0.05c0,0,0,0,0,0c0,0,0.04,0.01,0.13,0.01c0.15,0,0.34-0.03,0.54-0.06 c0.25-0.04,0.51-0.08,0.78-0.08c0.21,0,0.4,0.03,0.57,0.08c0.46,0.14,0.84,0.43,1.19,0.69c0.32,0.24,0.65,0.5,0.9,0.5 c0.08,0,0.16-0.02,0.25-0.07c0.26-0.14,0.32-0.29,0.35-0.43c0.27-1.4-2.51-4.63-3.7-6.01c-0.43-0.51-0.78-0.91-0.97-1.17 l-1.68-2.4c-0.63,0.89-1.76,2.28-3.65,4.58c-0.36,0.43-0.61,0.74-0.7,0.85c-0.21,0.27-0.46,0.55-0.72,0.84 c-0.48,0.54-1.03,1.15-1.22,1.65c-0.17,0.45-0.15,0.67-0.11,0.73c0.03,0.04,0.19,0.14,0.6,0.14c0.77,0,1.72-0.33,2.21-0.65 l0.98-0.62l0.11,0.65c0.13-0.04,0.26-0.09,0.4-0.14l0.25-0.09c0.16-0.05,0.33-0.11,0.54-0.11c0.15,0,0.3,0.03,0.43,0.09 c0.35,0.15,0.52,0.43,0.61,0.58l0.04,0.06c0.04,0.06,0.12,0.1,0.2,0.1C53.74,74.54,53.76,74.54,53.77,74.54z"></path> </g> </g> <g> <g> <path class="st1" d="M121.13,70.4v-53h22.02c2.24,0,4.3,0.47,6.2,1.42c1.89,0.95,3.52,2.2,4.89,3.77c1.37,1.57,2.44,3.33,3.21,5.3 c0.77,1.97,1.16,3.94,1.16,5.93c0,1.94-0.3,3.82-0.9,5.64s-1.44,3.45-2.54,4.89c-1.1,1.44-2.41,2.64-3.96,3.58 c-1.54,0.95-3.24,1.57-5.08,1.87l13.21,20.6h-4.4l-12.84-20h-17.17v20H121.13z M124.93,46.89h18.59c1.69,0,3.23-0.37,4.63-1.12 c1.39-0.75,2.59-1.73,3.58-2.95c1-1.22,1.75-2.61,2.28-4.18s0.78-3.17,0.78-4.81c0-1.69-0.31-3.32-0.93-4.89 c-0.62-1.57-1.47-2.95-2.54-4.14c-1.07-1.19-2.31-2.15-3.73-2.87c-1.42-0.72-2.95-1.08-4.59-1.08h-18.06V46.89z"></path> <path class="st1" d="M183.83,71.15c-2.74,0-5.27-0.54-7.61-1.6c-2.34-1.07-4.37-2.54-6.08-4.4c-1.72-1.87-3.06-4.02-4.03-6.46 c-0.97-2.44-1.46-5.05-1.46-7.84c0-2.74,0.48-5.31,1.46-7.73c0.97-2.41,2.3-4.53,3.99-6.34c1.69-1.82,3.69-3.25,6.01-4.29 c2.31-1.04,4.81-1.57,7.5-1.57c2.74,0,5.27,0.54,7.61,1.6c2.34,1.07,4.35,2.51,6.05,4.33c1.69,1.82,3.01,3.93,3.96,6.34 c0.94,2.41,1.42,4.96,1.42,7.65c0,0.25,0,0.56,0,0.93c0,0.37-0.03,0.61-0.07,0.71h-34.04c0.15,2.24,0.67,4.32,1.57,6.23 c0.9,1.92,2.03,3.57,3.4,4.96c1.37,1.39,2.95,2.49,4.74,3.28c1.79,0.8,3.71,1.19,5.75,1.19c1.34,0,2.66-0.19,3.96-0.56 c1.29-0.37,2.5-0.88,3.62-1.53c1.12-0.65,2.11-1.43,2.99-2.35c0.87-0.92,1.55-1.93,2.05-3.02l3.28,0.9 c-0.55,1.39-1.36,2.67-2.43,3.84c-1.07,1.17-2.31,2.18-3.73,3.02c-1.42,0.85-2.97,1.51-4.67,1.98 C187.36,70.91,185.62,71.15,183.83,71.15z M199.05,49.5c-0.15-2.29-0.66-4.38-1.53-6.27c-0.87-1.89-1.99-3.52-3.36-4.89 c-1.37-1.37-2.95-2.44-4.74-3.21c-1.79-0.77-3.71-1.16-5.75-1.16c-2.04,0-3.96,0.39-5.75,1.16c-1.79,0.77-3.37,1.84-4.74,3.21 c-1.37,1.37-2.46,3.01-3.28,4.93c-0.82,1.92-1.31,3.99-1.46,6.23H199.05z"></path> <path class="st1" d="M223.16,71.15c-2.99,0-5.85-0.5-8.58-1.49c-2.74-1-5.12-2.49-7.17-4.48l1.87-2.54 c2.09,1.89,4.25,3.28,6.49,4.18c2.24,0.9,4.7,1.34,7.39,1.34c3.38,0,6.11-0.71,8.17-2.13c2.06-1.42,3.1-3.4,3.1-5.93 c0-1.19-0.26-2.2-0.78-3.02s-1.31-1.52-2.35-2.09c-1.04-0.57-2.34-1.08-3.88-1.53c-1.54-0.45-3.33-0.92-5.37-1.42 c-2.19-0.5-4.09-1-5.71-1.49c-1.62-0.5-2.95-1.09-3.99-1.79c-1.04-0.7-1.83-1.54-2.35-2.54c-0.52-1-0.78-2.26-0.78-3.81 c0-1.94,0.37-3.63,1.12-5.08c0.75-1.44,1.78-2.64,3.1-3.58c1.32-0.94,2.84-1.65,4.55-2.13c1.72-0.47,3.55-0.71,5.49-0.71 c3.04,0,5.72,0.51,8.06,1.53c2.34,1.02,4.15,2.33,5.45,3.92l-2.09,2.02c-1.29-1.49-2.97-2.61-5.04-3.36 c-2.07-0.75-4.27-1.12-6.61-1.12c-1.44,0-2.8,0.15-4.07,0.45c-1.27,0.3-2.38,0.77-3.32,1.42c-0.95,0.65-1.69,1.48-2.24,2.5 c-0.55,1.02-0.82,2.23-0.82,3.62c0,1.14,0.19,2.07,0.56,2.76c0.37,0.7,0.97,1.29,1.79,1.79c0.82,0.5,1.88,0.93,3.17,1.31 s2.84,0.78,4.63,1.23c2.44,0.6,4.6,1.17,6.49,1.72c1.89,0.55,3.47,1.22,4.74,2.02c1.27,0.8,2.24,1.74,2.91,2.84 c0.67,1.1,1.01,2.49,1.01,4.18c0,3.48-1.36,6.26-4.07,8.32C231.31,70.11,227.69,71.15,223.16,71.15z"></path> <path class="st1" d="M263.02,71.15c-2.74,0-5.26-0.54-7.58-1.6c-2.31-1.07-4.32-2.53-6.01-4.37c-1.69-1.84-3.01-3.98-3.96-6.42 c-0.95-2.44-1.42-5-1.42-7.69c0-2.74,0.48-5.32,1.46-7.76c0.97-2.44,2.3-4.58,3.99-6.42c1.69-1.84,3.7-3.3,6.01-4.37 c2.31-1.07,4.81-1.6,7.5-1.6s5.17,0.54,7.46,1.6c2.29,1.07,4.29,2.53,6.01,4.37c1.72,1.84,3.06,3.98,4.03,6.42 c0.97,2.44,1.46,5.03,1.46,7.76c0,2.69-0.49,5.25-1.46,7.69c-0.97,2.44-2.3,4.58-3.99,6.42c-1.69,1.84-3.7,3.3-6.01,4.37 C268.21,70.61,265.71,71.15,263.02,71.15z M247.79,51.22c0,2.29,0.4,4.44,1.19,6.46s1.88,3.77,3.25,5.26 c1.37,1.49,2.97,2.68,4.81,3.55c1.84,0.87,3.81,1.31,5.9,1.31s4.05-0.44,5.9-1.31c1.84-0.87,3.46-2.08,4.85-3.62 c1.39-1.54,2.49-3.32,3.29-5.34c0.79-2.02,1.19-4.19,1.19-6.53c0-2.29-0.4-4.44-1.19-6.46c-0.8-2.02-1.89-3.78-3.29-5.3 c-1.39-1.52-3-2.72-4.81-3.62s-3.77-1.34-5.86-1.34s-4.06,0.45-5.9,1.34c-1.84,0.9-3.45,2.12-4.81,3.66 c-1.37,1.54-2.46,3.35-3.29,5.41C248.21,46.75,247.79,48.93,247.79,51.22z"></path> <path class="st1" d="M291.24,15.91h3.81v46.8c0,1.44,0.41,2.59,1.23,3.43c0.82,0.85,1.95,1.27,3.4,1.27 c0.55,0,1.21-0.06,1.98-0.19c0.77-0.12,1.48-0.31,2.13-0.56l0.75,2.99c-0.85,0.35-1.89,0.63-3.13,0.86 c-1.25,0.22-2.31,0.34-3.21,0.34c-2.09,0-3.77-0.63-5.04-1.9c-1.27-1.27-1.9-2.97-1.9-5.11V15.91z"></path> <path class="st1" d="M321.39,70.4l-16.2-38.81h3.88l14.33,35.08l14.41-35.08h3.66l-16.2,38.81H321.39z"></path> <path class="st1" d="M364.02,71.15c-2.74,0-5.28-0.54-7.61-1.6c-2.34-1.07-4.37-2.54-6.08-4.4c-1.72-1.87-3.06-4.02-4.03-6.46 c-0.97-2.44-1.46-5.05-1.46-7.84c0-2.74,0.49-5.31,1.46-7.73c0.97-2.41,2.3-4.53,3.99-6.34c1.69-1.82,3.7-3.25,6.01-4.29 c2.31-1.04,4.81-1.57,7.5-1.57c2.74,0,5.27,0.54,7.61,1.6c2.34,1.07,4.35,2.51,6.05,4.33c1.69,1.82,3.01,3.93,3.96,6.34 c0.94,2.41,1.42,4.96,1.42,7.65c0,0.25,0,0.56,0,0.93c0,0.37-0.03,0.61-0.08,0.71h-34.04c0.15,2.24,0.67,4.32,1.57,6.23 c0.9,1.92,2.03,3.57,3.4,4.96c1.37,1.39,2.95,2.49,4.74,3.28c1.79,0.8,3.71,1.19,5.75,1.19c1.34,0,2.66-0.19,3.96-0.56 c1.29-0.37,2.5-0.88,3.62-1.53c1.12-0.65,2.12-1.43,2.99-2.35c0.87-0.92,1.55-1.93,2.05-3.02l3.28,0.9 c-0.55,1.39-1.36,2.67-2.43,3.84c-1.07,1.17-2.31,2.18-3.73,3.02c-1.42,0.85-2.97,1.51-4.67,1.98 C367.55,70.91,365.81,71.15,364.02,71.15z M379.24,49.5c-0.15-2.29-0.66-4.38-1.53-6.27c-0.87-1.89-1.99-3.52-3.36-4.89 c-1.37-1.37-2.95-2.44-4.74-3.21c-1.79-0.77-3.71-1.16-5.75-1.16c-2.04,0-3.96,0.39-5.75,1.16c-1.79,0.77-3.37,1.84-4.74,3.21 c-1.37,1.37-2.46,3.01-3.28,4.93c-0.82,1.92-1.31,3.99-1.46,6.23H379.24z"></path> </g> <g> <path class="st1" d="M134.92,95.38V80.82h5.99c0.62,0,1.18,0.13,1.7,0.39c0.52,0.26,0.97,0.61,1.34,1.04 c0.38,0.43,0.67,0.92,0.88,1.46c0.21,0.54,0.32,1.08,0.32,1.63c0,0.59-0.1,1.16-0.3,1.7c-0.2,0.55-0.48,1.03-0.84,1.46 c-0.36,0.42-0.8,0.76-1.3,1.02c-0.51,0.25-1.07,0.38-1.68,0.38h-5.07v5.5H134.92z M135.97,88.92h5.03c0.48,0,0.91-0.1,1.29-0.3 c0.38-0.2,0.71-0.46,0.97-0.8c0.27-0.33,0.47-0.72,0.62-1.15s0.22-0.88,0.22-1.34c0-0.48-0.09-0.93-0.26-1.37 c-0.17-0.43-0.4-0.81-0.7-1.14c-0.29-0.33-0.64-0.59-1.03-0.78c-0.39-0.19-0.8-0.29-1.24-0.29h-4.9V88.92z"></path> <path class="st1" d="M161.41,80.82v14.57h-1.05v-6.98h-9.19v6.98h-1.05V80.82h1.05v6.65h9.19v-6.65H161.41z"></path> <path class="st1" d="M167.3,80.82l5.09,8.06l5.11-8.06h1.17l-5.75,9.07v5.5h-1.05v-5.54l-5.73-9.03H167.3z"></path> <path class="st1" d="M191.49,83.24c-0.94-1.05-2.28-1.58-4-1.58c-1.42,0-2.46,0.27-3.11,0.81c-0.65,0.54-0.98,1.27-0.98,2.18 c0,0.47,0.08,0.85,0.25,1.16s0.42,0.57,0.77,0.79c0.35,0.22,0.79,0.4,1.32,0.55s1.18,0.31,1.93,0.47 c0.78,0.16,1.49,0.35,2.12,0.54c0.64,0.2,1.18,0.45,1.62,0.75c0.44,0.3,0.79,0.67,1.03,1.11c0.24,0.44,0.36,0.98,0.36,1.62 c0,0.64-0.13,1.2-0.38,1.68s-0.61,0.88-1.07,1.2c-0.46,0.32-1.01,0.56-1.64,0.73c-0.64,0.16-1.34,0.25-2.12,0.25 c-2.27,0-4.19-0.72-5.77-2.17l0.55-0.84c0.62,0.64,1.37,1.15,2.26,1.53c0.89,0.38,1.89,0.56,3,0.56c1.27,0,2.27-0.23,2.99-0.7 c0.72-0.46,1.08-1.17,1.08-2.11c0-0.48-0.1-0.89-0.29-1.22s-0.48-0.63-0.85-0.87c-0.38-0.25-0.85-0.46-1.43-0.64 c-0.57-0.18-1.25-0.35-2.01-0.51c-0.78-0.16-1.47-0.34-2.06-0.52c-0.59-0.19-1.09-0.42-1.5-0.7c-0.4-0.28-0.71-0.62-0.91-1.02 c-0.21-0.4-0.31-0.9-0.31-1.5c0-0.66,0.13-1.24,0.38-1.74c0.25-0.51,0.6-0.93,1.06-1.28c0.45-0.35,0.99-0.61,1.62-0.79 c0.63-0.18,1.33-0.27,2.09-0.27c0.94,0,1.79,0.14,2.52,0.42c0.74,0.28,1.41,0.71,2.01,1.28L191.49,83.24z"></path> <path class="st1" d="M197.89,95.38V80.82h1.05v14.57H197.89z"></path> <path class="st1" d="M204.21,88c0-0.88,0.15-1.75,0.46-2.62c0.31-0.87,0.76-1.64,1.34-2.33c0.59-0.68,1.31-1.24,2.17-1.67 c0.85-0.43,1.83-0.65,2.92-0.65c1.3,0,2.41,0.3,3.32,0.89c0.92,0.59,1.6,1.36,2.05,2.29l-0.86,0.49 c-0.26-0.51-0.56-0.93-0.91-1.27c-0.35-0.34-0.72-0.62-1.13-0.83c-0.4-0.21-0.82-0.37-1.26-0.46c-0.44-0.1-0.87-0.14-1.29-0.14 c-0.93,0-1.75,0.19-2.46,0.56c-0.71,0.38-1.31,0.87-1.81,1.47c-0.49,0.6-0.87,1.28-1.12,2.04c-0.25,0.76-0.38,1.52-0.38,2.29 c0,0.86,0.15,1.68,0.45,2.46c0.3,0.78,0.71,1.47,1.23,2.06c0.52,0.59,1.13,1.07,1.85,1.43c0.71,0.36,1.48,0.53,2.3,0.53 c0.44,0,0.89-0.05,1.35-0.17c0.46-0.11,0.91-0.28,1.33-0.51c0.42-0.23,0.82-0.53,1.19-0.89c0.37-0.36,0.68-0.79,0.92-1.28 l0.9,0.43c-0.25,0.55-0.58,1.03-1,1.46c-0.42,0.42-0.9,0.78-1.42,1.07c-0.52,0.29-1.07,0.5-1.65,0.65 c-0.58,0.14-1.15,0.22-1.71,0.22c-1,0-1.91-0.22-2.74-0.66c-0.83-0.44-1.54-1.01-2.14-1.71c-0.6-0.7-1.07-1.5-1.41-2.4 C204.38,89.84,204.21,88.93,204.21,88z"></path> <path class="st1" d="M226.21,80.82h0.9l6.16,14.57h-1.11l-2.03-4.8h-6.96l-2.03,4.8h-1.13L226.21,80.82z M229.84,89.72l-3.18-7.63 l-3.24,7.63H229.84z"></path> <path class="st1" d="M237.94,95.38V80.82h1.05v13.62h8.7v0.94H237.94z"></path> <path class="st1" d="M269.11,81.76h-5.33v13.62h-1.05V81.76h-5.33v-0.94h11.72V81.76z"></path> <path class="st1" d="M285.11,80.82v14.57h-1.05v-6.98h-9.19v6.98h-1.05V80.82h1.05v6.65h9.19v-6.65H285.11z"></path> <path class="st1" d="M301.08,94.44v0.94h-9.71V80.82h9.52v0.94h-8.47v5.72h7.41v0.9h-7.41v6.05H301.08z"></path> <path class="st1" d="M306.39,95.38V80.82h6.05c0.62,0,1.18,0.13,1.7,0.39c0.52,0.26,0.97,0.61,1.34,1.04 c0.38,0.43,0.67,0.92,0.88,1.46c0.21,0.54,0.32,1.08,0.32,1.63c0,0.53-0.08,1.05-0.25,1.55c-0.16,0.5-0.4,0.95-0.7,1.34 c-0.3,0.4-0.66,0.73-1.09,0.99c-0.42,0.26-0.89,0.43-1.4,0.51l3.63,5.66h-1.21l-3.53-5.5h-4.72v5.5H306.39z M307.44,88.92h5.11 c0.46,0,0.89-0.1,1.27-0.31s0.71-0.47,0.99-0.81c0.27-0.33,0.48-0.72,0.62-1.15c0.14-0.43,0.22-0.87,0.22-1.32 c0-0.46-0.09-0.91-0.26-1.34c-0.17-0.43-0.4-0.81-0.7-1.14s-0.64-0.59-1.03-0.79c-0.39-0.2-0.81-0.3-1.26-0.3h-4.96V88.92z"></path> <path class="st1" d="M326.52,80.82h0.9l6.16,14.57h-1.11l-2.03-4.8h-6.96l-2.03,4.8h-1.13L326.52,80.82z M330.15,89.72l-3.18-7.63 l-3.24,7.63H330.15z"></path> <path class="st1" d="M338.26,95.38V80.82h5.99c0.62,0,1.18,0.13,1.7,0.39c0.52,0.26,0.97,0.61,1.34,1.04 c0.38,0.43,0.67,0.92,0.88,1.46c0.21,0.54,0.32,1.08,0.32,1.63c0,0.59-0.1,1.16-0.3,1.7c-0.2,0.55-0.48,1.03-0.84,1.46 c-0.36,0.42-0.8,0.76-1.3,1.02c-0.51,0.25-1.07,0.38-1.68,0.38h-5.07v5.5H338.26z M339.31,88.92h5.03c0.48,0,0.91-0.1,1.29-0.3 s0.71-0.46,0.97-0.8c0.27-0.33,0.47-0.72,0.62-1.15s0.22-0.88,0.22-1.34c0-0.48-0.09-0.93-0.26-1.37c-0.17-0.43-0.4-0.81-0.7-1.14 s-0.64-0.59-1.03-0.78c-0.39-0.19-0.8-0.29-1.24-0.29h-4.9V88.92z"></path> <path class="st1" d="M352.89,80.82l5.09,8.06l5.11-8.06h1.17l-5.75,9.07v5.5h-1.05v-5.54l-5.72-9.03H352.89z"></path> </g> </g> </svg> 